<svg width="26" height="24" viewBox="0 0 26 24" fill="none" xmlns="http://www.w3.org/2000/svg">
<path d="M9 6.33334C9 8.54248 10.7909 10.3333 13 10.3333C15.2091 10.3333 17 8.54248 17 6.33334M1 18.0669V5.26693C1 3.77346 1 3.02616 1.29065 2.45573C1.54631 1.95397 1.95396 1.54632 2.45573 1.29065C3.02616 1 3.77345 1 5.26693 1H20.7336C22.2271 1 22.9728 1 23.5432 1.29065C24.045 1.54632 24.454 1.95397 24.7096 2.45573C25 3.02561 25 3.772 25 5.26255V18.0714C25 19.562 25 20.3073 24.7096 20.8772C24.454 21.3789 24.045 21.7873 23.5432 22.043C22.9733 22.3333 22.228 22.3333 20.7375 22.3333H5.26255C3.77199 22.3333 3.0256 22.3333 2.45573 22.043C1.95396 21.7873 1.54631 21.3789 1.29065 20.8772C1 20.3067 1 19.5604 1 18.0669Z" stroke="#718355" stroke-width="2" stroke-linecap="round" stroke-linejoin="round"/>
</svg>
